<svg width="24" height="15" viewBox="0 0 24 15" fill="none" xmlns="http://www.w3.org/2000/svg">
<path fill-rule="evenodd" clip-rule="evenodd" d="M10.2232 1.63171C10.6706 1.18482 11.2772 0.933805 11.9096 0.933805C12.5419 0.933805 13.1485 1.18482 13.5959 1.63171L22.5973 10.6299C23.0447 11.0776 23.296 11.6847 23.2959 12.3176C23.2957 12.9506 23.0442 13.5575 22.5965 14.005C22.1488 14.4525 21.5417 14.7038 20.9088 14.7036C20.2758 14.7035 19.6688 14.4519 19.2214 14.0042L11.9096 6.69239L4.59774 14.0042C4.14787 14.4391 3.54518 14.6799 2.91948 14.6748C2.29378 14.6697 1.69513 14.419 1.25247 13.9767C0.809805 13.5345 0.558552 12.9361 0.55282 12.3104C0.547091 11.6847 0.787344 11.0818 1.22183 10.6315L10.2216 1.63011L10.2232 1.63171Z" fill="white"/>
</svg>
