<svg width="24" height="24" viewBox="0 0 24 24" fill="none" xmlns="http://www.w3.org/2000/svg">
<g clip-path="url(#clip0_112_13292)">
<path d="M3.24075 6.09773C3.86742 5.65973 4.81209 5.74373 5.37475 6.20839L4.72942 5.27039C4.21009 4.52973 4.39609 3.72839 5.13742 3.20839C5.87875 2.69039 7.97942 4.08306 7.97942 4.08306C7.45542 3.33506 7.55342 2.38706 8.30142 1.86239C8.66104 1.61112 9.10571 1.51287 9.53772 1.58925C9.96973 1.66563 10.3538 1.91038 10.6054 2.26973L17.5521 12.0831L16.6668 20.6664L9.27809 17.9717L2.83342 8.41639C2.70775 8.23746 2.61859 8.03551 2.57105 7.82209C2.5235 7.60866 2.5185 7.38796 2.55634 7.1726C2.59417 6.95725 2.67409 6.75146 2.79153 6.56703C2.90897 6.38259 3.06162 6.22311 3.24075 6.09773Z" fill="#90603E"/>
<path d="M1.79681 11.5574C1.79681 11.5574 1.04214 10.4574 2.14281 9.70339C3.24214 8.94939 3.99614 10.0487 3.99614 10.0487L7.49681 15.1541C7.61747 14.9527 7.74947 14.7541 7.89681 14.5581L3.03814 7.47339C3.03814 7.47339 2.28414 6.37405 3.38414 5.62005C4.48347 4.86605 5.23747 5.96539 5.23747 5.96539L9.80747 12.6301C9.97747 12.4914 10.1515 12.3521 10.3308 12.2154L5.03281 4.48805C5.03281 4.48805 4.27881 3.38872 5.37881 2.63472C6.47814 1.88072 7.23214 2.98005 7.23214 2.98005L12.5301 10.7061C12.7248 10.5867 12.9175 10.4834 13.1108 10.3741L8.15881 3.15272C8.15881 3.15272 7.40481 2.05339 8.50414 1.29939C9.60347 0.545387 10.3575 1.64472 10.3575 1.64472L15.5935 9.28072L16.3895 10.4421C13.0908 12.7047 12.7768 16.9614 14.6615 19.7101C15.0381 20.2601 15.5881 19.8834 15.5881 19.8834C13.3261 16.5841 14.0168 12.8767 17.3161 10.6147L16.3435 5.74672C16.3435 5.74672 15.9801 4.46405 17.2621 4.10005C18.5448 3.73672 18.9088 5.01939 18.9088 5.01939L20.0321 8.35539C20.4775 9.67805 20.9515 10.9961 21.5788 12.2427C23.3501 15.7627 22.2921 20.1374 18.9521 22.4287C15.3088 24.9267 10.3281 23.9981 7.82947 20.3554L1.79681 11.5574Z" fill="#AF7E57"/>
<path d="M7.99984 21.361C5.33318 21.361 2.63851 18.6663 2.63851 15.9997C2.63851 15.631 2.36851 15.333 1.99984 15.333C1.63118 15.333 1.30518 15.631 1.30518 15.9997C1.30518 19.9997 3.99984 22.6943 7.99984 22.6943C8.36851 22.6943 8.66651 22.3683 8.66651 21.9997C8.66651 21.631 8.36851 21.361 7.99984 21.361Z" fill="#5DADEC"/>
<path d="M4.66667 22.6668C2.66667 22.6668 1.33333 21.3335 1.33333 19.3335C1.33333 19.1567 1.2631 18.9871 1.13807 18.8621C1.01305 18.7371 0.843478 18.6668 0.666667 18.6668C0.489856 18.6668 0.320286 18.7371 0.195262 18.8621C0.0702379 18.9871 0 19.1567 0 19.3335C0 22.0002 2 24.0002 4.66667 24.0002C4.84348 24.0002 5.01305 23.9299 5.13807 23.8049C5.2631 23.6799 5.33333 23.5103 5.33333 23.3335C5.33333 23.1567 5.2631 22.9871 5.13807 22.8621C5.01305 22.7371 4.84348 22.6668 4.66667 22.6668ZM16 1.3335C15.8232 1.3335 15.6536 1.40373 15.5286 1.52876C15.4036 1.65378 15.3333 1.82335 15.3333 2.00016C15.3333 2.17697 15.4036 2.34654 15.5286 2.47157C15.6536 2.59659 15.8232 2.66683 16 2.66683C18.6667 2.66683 21.3333 5.0595 21.3333 8.00016C21.3333 8.17697 21.4036 8.34654 21.5286 8.47157C21.6536 8.59659 21.8232 8.66683 22 8.66683C22.1768 8.66683 22.3464 8.59659 22.4714 8.47157C22.5964 8.34654 22.6667 8.17697 22.6667 8.00016C22.6667 4.32416 20 1.3335 16 1.3335Z" fill="#5DADEC"/>
<path d="M19.3327 0.027832C18.9647 0.027832 18.666 0.298499 18.666 0.666499C18.666 1.0345 18.9647 1.36117 19.3327 1.36117C21.3327 1.36117 22.638 2.8445 22.638 4.6665C22.638 5.0345 22.964 5.33317 23.3327 5.33317C23.7013 5.33317 23.9713 5.0345 23.9713 4.6665C23.9713 2.1085 21.9993 0.027832 19.3327 0.027832Z" fill="#5DADEC"/>
</g>
<defs>
<clipPath id="clip0_112_13292">
<rect width="24" height="24" fill="white"/>
</clipPath>
</defs>
</svg>
